<svg width="current" height="current" viewBox="0 0 1440 109" fill="none" xmlns="http://www.w3.org/2000/svg">
<mask id="path-1-inside-1_120_115" fill="white">
<path fill-rule="evenodd" clip-rule="evenodd" d="M1440 119.999H0C1.6489 118.976 3.3288 117.958 5.03945 116.947C61.2586 83.9826 149.77 56.2628 257.334 37.7655C331.19 25.1261 410 15.0436 491.493 7.864C550.344 2.75654 609.05 2.09026 668.738 1.41284C694.395 1.12165 720.233 0.828408 746.341 0.179503C809.298 -1.43022 874.253 8.04765 924.798 18.1465C942.342 21.64 959.575 25.3797 976.831 29.1246C1030.6 40.7929 1084.6 52.5114 1148.97 56.9923C1170.35 58.4809 1194.37 58.7425 1218.63 59.0067C1254.65 59.399 1291.21 59.7972 1320.5 64.2286C1345.73 68.036 1356.22 74.7423 1366.93 81.587C1371.87 84.7398 1376.85 87.9219 1383.33 90.8636C1388.95 93.3832 1394.69 95.6784 1400.31 97.9252C1413.76 103.303 1426.52 108.403 1435.15 115.64C1436.89 117.08 1438.5 118.533 1440 119.999Z"/>
</mask>
<path fill-rule="evenodd" clip-rule="evenodd" d="M1440 119.999H0C1.6489 118.976 3.3288 117.958 5.03945 116.947C61.2586 83.9826 149.77 56.2628 257.334 37.7655C331.19 25.1261 410 15.0436 491.493 7.864C550.344 2.75654 609.05 2.09026 668.738 1.41284C694.395 1.12165 720.233 0.828408 746.341 0.179503C809.298 -1.43022 874.253 8.04765 924.798 18.1465C942.342 21.64 959.575 25.3797 976.831 29.1246C1030.6 40.7929 1084.6 52.5114 1148.97 56.9923C1170.35 58.4809 1194.37 58.7425 1218.63 59.0067C1254.65 59.399 1291.21 59.7972 1320.5 64.2286C1345.73 68.036 1356.22 74.7423 1366.93 81.587C1371.87 84.7398 1376.85 87.9219 1383.33 90.8636C1388.95 93.3832 1394.69 95.6784 1400.31 97.9252C1413.76 103.303 1426.52 108.403 1435.15 115.64C1436.89 117.08 1438.5 118.533 1440 119.999Z" fill="#FCAF92"/>
<path d="M1440 119.999V124.999H1452.26L1443.5 116.424L1440 119.999ZM0 119.999L-2.63637 115.75L-17.5402 124.999H0V119.999ZM5.03945 116.947L2.5104 112.633L2.50249 112.638L2.49459 112.643L5.03945 116.947ZM257.334 37.7655L256.491 32.8372L256.487 32.8379L257.334 37.7655ZM491.493 7.864L491.061 2.88272L491.055 2.88329L491.493 7.864ZM668.738 1.41284L668.681 -3.58684L668.738 1.41284ZM746.341 0.179503L746.466 5.17796L746.469 5.17787L746.341 0.179503ZM924.798 18.1465L923.819 23.0496L923.822 23.0502L924.798 18.1465ZM976.831 29.1246L975.771 34.0108L976.831 29.1246ZM1148.97 56.9923L1149.32 52.0043L1148.97 56.9923ZM1218.63 59.0067L1218.68 54.007L1218.63 59.0067ZM1320.5 64.2286L1319.75 69.1723L1319.75 69.1726L1320.5 64.2286ZM1366.93 81.587L1364.24 85.8003V85.8003L1366.93 81.587ZM1383.33 90.8636L1381.27 95.4173L1381.28 95.4212L1381.29 95.4251L1383.33 90.8636ZM1400.31 97.9252L1398.45 102.568L1400.31 97.9252ZM1435.15 115.64L1431.94 119.471L1431.95 119.478L1431.96 119.485L1435.15 115.64ZM1440 114.999H0V124.999H1440V114.999ZM2.63637 124.247C4.25433 123.243 5.9037 122.244 7.58431 121.25L2.49459 112.643C0.753895 113.672 -0.956518 114.708 -2.63637 115.75L2.63637 124.247ZM7.56849 121.26C63.0323 88.7388 150.862 61.1485 258.181 42.6932L256.487 32.8379C148.679 51.3771 59.485 79.2265 2.5104 112.633L7.56849 121.26ZM258.177 42.6939C331.889 30.0792 410.564 20.0134 491.932 12.8447L491.055 2.88329C409.437 10.0739 330.491 20.173 256.491 32.8372L258.177 42.6939ZM491.926 12.8453C550.558 7.75679 609.075 7.09029 668.795 6.41251L668.681 -3.58684C609.025 -2.90977 550.13 -2.24372 491.061 2.88272L491.926 12.8453ZM668.795 6.41251C694.446 6.12139 720.318 5.82784 746.466 5.17796L746.217 -4.81895C720.148 -4.17102 694.343 -3.87809 668.681 -3.58684L668.795 6.41251ZM746.469 5.17787C808.898 3.58164 873.443 12.9847 923.819 23.0496L925.778 13.2434C875.062 3.11062 809.698 -6.44209 746.214 -4.81886L746.469 5.17787ZM923.822 23.0502C941.317 26.534 958.508 30.2646 975.771 34.0108L977.892 24.2383C960.642 20.4949 943.367 16.7461 925.775 13.2428L923.822 23.0502ZM975.771 34.0108C1029.52 45.6753 1083.85 57.4712 1148.62 61.9802L1149.32 52.0043C1085.35 47.5517 1031.68 35.9104 977.892 24.2383L975.771 34.0108ZM1148.62 61.9802C1170.18 63.481 1194.35 63.7426 1218.57 64.0064L1218.68 54.007C1194.39 53.7424 1170.53 53.4808 1149.32 52.0043L1148.62 61.9802ZM1218.57 64.0064C1254.71 64.3999 1290.88 64.8042 1319.75 69.1723L1321.25 59.2849C1291.54 54.7903 1254.6 54.3981 1218.68 54.007L1218.57 64.0064ZM1319.75 69.1726C1344.04 72.838 1353.86 79.169 1364.24 85.8003L1369.62 77.3736C1358.58 70.3155 1347.41 63.234 1321.24 59.2846L1319.75 69.1726ZM1364.24 85.8003C1369.17 88.9485 1374.42 92.3111 1381.27 95.4173L1385.4 86.31C1379.27 83.5327 1374.57 80.531 1369.62 77.3736L1364.24 85.8003ZM1381.29 95.4251C1387.01 97.9945 1392.85 100.328 1398.45 102.568L1402.17 93.2823C1396.53 91.0291 1390.88 88.772 1385.38 86.3022L1381.29 95.4251ZM1398.45 102.568C1412.16 108.046 1424.06 112.859 1431.94 119.471L1438.37 111.809C1428.99 103.947 1415.37 98.5599 1402.17 93.2823L1398.45 102.568ZM1431.96 119.485C1433.59 120.845 1435.11 122.209 1436.5 123.573L1443.5 116.424C1441.89 114.858 1440.18 113.315 1438.35 111.795L1431.96 119.485Z" fill="#FFA684" mask="url(#path-1-inside-1_120_115)"/>
</svg>
