<svg width="current" height="current" viewBox="0 0 419 97" fill="none" xmlns="http://www.w3.org/2000/svg">
<rect width="419" height="97" rx="20" fill="#F26B3A"/>
<path d="M88.5391 43.7244C88.8484 45.503 89.0026 47.3051 89 49.1104C89 57.1727 86.1155 63.9896 81.0959 68.6038H81.1025C76.7128 72.6548 70.6786 75 63.5238 75C56.4893 75 49.7428 72.2081 44.7687 67.2386C39.7945 62.269 37 55.5289 37 48.5009C37 41.4729 39.7945 34.7327 44.7687 29.7632C49.7428 24.7936 56.4893 22.0017 63.5238 22.0017C70.1082 21.9247 76.4669 24.3961 81.2683 28.8981L73.6957 36.4636C70.9584 33.8567 67.3051 32.4291 63.5238 32.4888C56.6044 32.4888 50.7261 37.1526 48.6307 43.4329C47.5197 46.7238 47.5197 50.2879 48.6307 53.5788H48.6406C50.746 59.8491 56.6144 64.513 63.5338 64.513C67.1079 64.513 70.178 63.5988 72.5585 61.9823H72.5486C73.9308 61.0674 75.1132 59.8823 76.0244 58.4983C76.9355 57.1143 77.5566 55.5602 77.85 53.9299H63.5238V43.7277H88.5391V43.7244Z" fill="white"/>
<path d="M128.55 56.07V49.68C128.55 48.75 127.53 47.91 126.42 47.91H120.42C118.02 47.91 117.75 51.57 120.42 51.57H124.92V55.26C123.81 56.07 122.25 56.61 120.42 56.61C116.49 56.61 113.55 53.91 113.55 49.47C113.55 45.24 117.06 42.33 120.69 42.33C122.25 42.33 123.81 43.14 124.92 44.22C126.72 45.81 129.36 43.14 127.53 41.34C125.67 39.51 123.06 38.7 120.69 38.7C114.36 38.7 109.65 43.41 109.65 49.47C109.65 56.61 114.12 60.21 120.42 60.21C123.06 60.21 125.67 59.46 127.8 57.69C128.31 57.12 128.55 56.61 128.55 56.07ZM154.193 49.5C154.193 42.39 148.703 38.76 143.453 38.49C137.903 38.49 132.143 42.12 132.143 49.5C132.143 56.85 137.903 60.54 143.453 60.3C148.703 60.3 154.193 56.61 154.193 49.5ZM150.263 49.5C150.263 54.21 146.573 56.61 143.123 56.61C139.763 56.61 136.103 54.21 136.103 49.5C136.103 44.76 139.763 42.39 143.123 42.39C146.573 42.39 150.263 44.76 150.263 49.5ZM179.154 49.5C179.154 42.39 173.664 38.76 168.414 38.49C162.864 38.49 157.104 42.12 157.104 49.5C157.104 56.85 162.864 60.54 168.414 60.3C173.664 60.3 179.154 56.61 179.154 49.5ZM175.224 49.5C175.224 54.21 171.534 56.61 168.084 56.61C164.724 56.61 161.064 54.21 161.064 49.5C161.064 44.76 164.724 42.39 168.084 42.39C171.534 42.39 175.224 44.76 175.224 49.5ZM201.265 56.07V49.68C201.265 48.75 200.245 47.91 199.135 47.91H193.135C190.735 47.91 190.465 51.57 193.135 51.57H197.635V55.26C196.525 56.07 194.965 56.61 193.135 56.61C189.205 56.61 186.265 53.91 186.265 49.47C186.265 45.24 189.775 42.33 193.405 42.33C194.965 42.33 196.525 43.14 197.635 44.22C199.435 45.81 202.075 43.14 200.245 41.34C198.385 39.51 195.775 38.7 193.405 38.7C187.075 38.7 182.365 43.41 182.365 49.47C182.365 56.61 186.835 60.21 193.135 60.21C195.775 60.21 198.385 59.46 200.515 57.69C201.025 57.12 201.265 56.61 201.265 56.07ZM205.608 58.17C205.608 59.25 206.448 60 207.498 60H217.428C220.428 60 220.368 56.07 217.428 56.07H209.268V41.04C209.268 40.05 208.458 39.21 207.498 39.21C206.448 39.21 205.608 40.05 205.608 41.04V58.17ZM235.856 60C238.796 60 238.586 56.07 235.856 56.07H226.706V51.57H234.266C236.936 51.57 236.936 47.64 234.266 47.64H226.706V43.14H235.346C238.046 43.14 238.106 39.24 235.346 39.24H224.576C223.526 39.24 222.716 40.02 222.716 41.1V58.14C222.716 59.19 223.526 60 224.576 60H235.856ZM240.334 56.37V59.61H265.474V56.37H240.334ZM250.864 51.12V57.69H254.854V51.12H250.864ZM243.154 36.69V39.84H258.694V42.81H243.214V50.61H247.174V45.93H262.654V36.69H243.154ZM243.214 49.02V52.23H263.284V49.02H243.214ZM283.441 37.02V41.07C283.441 46.47 281.161 51.81 276.331 53.91L278.701 57.21C284.221 54.66 286.681 48.21 286.681 41.07V37.02H283.441ZM284.221 37.02V41.07C284.221 47.91 286.681 54.09 292.051 56.55L294.391 53.34C289.651 51.3 287.461 46.2 287.461 41.07V37.02H284.221ZM295.711 34.86V62.73H299.731V34.86H295.711ZM310.439 37.74V39.48C310.439 42.96 308.489 46.56 303.839 48.06L305.909 51.15C311.219 49.44 313.709 44.73 313.709 39.48V37.74H310.439ZM311.249 37.74V39.48C311.249 44.46 313.649 48.99 318.839 50.67L320.879 47.58C316.379 46.14 314.489 42.75 314.489 39.48V37.74H311.249ZM304.919 36.51V39.69H319.919V36.51H304.919ZM322.139 34.89V51.63H326.129V34.89H322.139ZM325.019 41.61V44.88H329.819V41.61H325.019ZM307.589 52.83V56.04H322.139V62.67H326.129V52.83H307.589ZM349.676 34.89V62.67H353.636V34.89H349.676ZM352.736 45.72V49.05H357.656V45.72H352.736ZM331.736 39V42.18H347.906V39H331.736ZM339.866 43.74C335.816 43.74 332.816 46.5 332.816 50.37C332.816 54.24 335.816 57 339.866 57C343.916 57 346.916 54.24 346.916 50.37C346.916 46.5 343.916 43.74 339.866 43.74ZM339.866 46.98C341.756 46.98 343.106 48.24 343.106 50.37C343.106 52.5 341.756 53.76 339.866 53.76C337.976 53.76 336.626 52.5 336.626 50.37C336.626 48.24 337.976 46.98 339.866 46.98ZM337.856 35.34V40.2H341.846V35.34H337.856ZM378.594 34.89V62.67H382.614V34.89H378.594ZM370.404 37.77V38.49C370.404 45.93 367.524 50.97 359.544 54.81L361.614 57.99C371.484 53.22 374.364 46.26 374.364 37.77H370.404ZM361.014 37.77V40.92H372.294V37.77H361.014Z" fill="white"/>
</svg>
