<svg width="current" height="current" viewBox="0 0 523 398" fill="none" xmlns="http://www.w3.org/2000/svg">
<path d="M243.151 392.16L243.163 392.159C252.217 391.535 261.391 391.314 270.363 391.098C276.211 390.957 281.973 390.819 287.561 390.572C302.002 389.934 316.051 388.57 330.035 384.717C357.759 376.955 384.586 365.883 409.737 351.884C409.739 351.884 409.74 351.883 409.741 351.882L412.173 356.251L243.151 392.16ZM243.151 392.16C223.217 393.582 202.065 383.206 184.874 371.473L184.868 371.469M243.151 392.16L184.868 371.469M184.868 371.469C178.916 367.419 173.059 363.084 167.098 358.672L166.615 358.314C160.517 353.8 154.31 349.216 147.945 344.928C135.216 336.353 121.577 328.765 106.111 324.949C98.2289 323.005 89.3288 322.56 80.9358 322.14C78.965 322.042 77.0223 321.945 75.1272 321.83C64.755 321.201 55.5224 320.057 48.1221 316.208L48.1174 316.206M184.868 371.469L48.1174 316.206M48.1174 316.206C43.069 313.587 40.0489 309.574 37.3452 304.432C36.3285 302.499 35.4212 300.539 34.4491 298.439C34.0885 297.659 33.719 296.861 33.3317 296.038C31.9456 293.091 30.3897 289.959 28.4306 286.952L28.4243 286.943M48.1174 316.206L28.4243 286.943M28.4243 286.943L28.418 286.933M28.4243 286.943L28.418 286.933M28.418 286.933C26.7077 284.334 24.9759 281.949 23.3191 279.7C23.0157 279.288 22.716 278.882 22.4197 278.481C21.077 276.663 19.8036 274.939 18.5733 273.169C15.6122 268.909 13.0645 264.61 11.1751 259.25L11.1703 259.237M28.418 286.933L11.1703 259.237M11.1703 259.237C2.04397 233.579 2.94484 204.243 14.5167 179.566L14.5177 179.564M11.1703 259.237L14.5177 179.564M14.5177 179.564C29.7206 147.103 62.9822 123.391 99.0664 119.325C110.173 118.088 121.433 118.543 133.054 119.235C134.596 119.327 136.147 119.423 137.704 119.52C147.758 120.144 158.101 120.787 168.391 120.385L168.393 120.385M14.5177 179.564L168.393 120.385M168.393 120.385C202.233 119.049 235.048 105.84 260.825 84.4003L260.833 84.3943M168.393 120.385L260.833 84.3943M260.833 84.3943L260.84 84.3882M260.833 84.3943L260.84 84.3882M260.84 84.3882C271.137 75.7578 280.096 65.6594 288.765 55.8874C290.628 53.7868 292.479 51.7013 294.326 49.6487C304.904 37.8948 315.541 27.0184 328.729 19.0389L328.731 19.0375M260.84 84.3882L328.731 19.0375M328.731 19.0375C354.502 3.42682 383.706 2.64085 411.146 11.3813C438.648 20.1417 464.091 38.4087 481.76 60.342L481.762 60.3448M328.731 19.0375L481.762 60.3448M481.762 60.3448C527.19 116.655 527.325 200.882 494.936 264.045L481.762 60.3448Z" fill="white" stroke="#FCAF92" stroke-width="10"/>
</svg>
