<svg width="current" height="current" viewBox="0 0 609 324" fill="none" xmlns="http://www.w3.org/2000/svg">
<path d="M170.036 6.10964C201.841 1.24845 234.925 -0.599627 268.322 0.672777C302.779 2.09505 334.845 12.3917 369.06 19.1348C393.873 23.9786 416.681 39.9 433.747 54.9603C458.138 76.4281 479.44 101.447 510.923 115.925C530.6 124.975 558.475 128.249 575.615 140.521C588.507 149.733 587.663 161.805 593.3 173.052C598.541 183.38 605.009 191.326 607.179 202.636C612.183 228.231 604.558 254.156 585.274 272.816C559.969 297.331 515.422 308.577 471.888 301.476C445.231 297.104 419.802 286.607 393.505 280.804C356.359 272.622 317.781 274.49 285.153 285.111C253.346 295.587 228.614 315.333 193.748 321.763C125.159 334.443 54.3647 289.241 22.9425 240.265C-17.5076 177.316 1.19994 103.64 52.3619 58.0253C82.4246 31.4325 123.693 13.277 170.036 6.10964Z" fill="url(#paint0_linear_218_326)" fill-opacity="0.3"/>
<defs>
<linearGradient id="paint0_linear_218_326" x1="194.5" y1="33.5" x2="185.443" y2="183.45" gradientUnits="userSpaceOnUse">
<stop stop-color="#FCAF92"/>
<stop offset="1" stop-color="#FCAF92" stop-opacity="0"/>
</linearGradient>
</defs>
</svg>
